# This file uses centimeters as units for non-parametric coordinates.

mtllib Village.mtl
g default
v -183.263392 -0.000000 134.458222
v 183.263392 -0.000000 134.458222
v -183.263392 0.000000 -257.027162
v 183.263392 0.000000 -257.027162
vt 0.000000 0.000000
vt 1.000000 0.000000
vt 0.000000 1.000000
vt 1.000000 1.000000
vn 0.000000 1.000000 0.000000
vn 0.000000 1.000000 0.000000
vn 0.000000 1.000000 0.000000
vn 0.000000 1.000000 0.000000
s off
g GRASS
usemtl blinn1SG
f 1/1/1 2/2/2 4/4/3 3/3/4
g default
v -9.238059 0.012238 -7.945931
v -0.945970 0.012238 -7.945931
v -9.238059 4.288368 -7.945931
v -0.945970 4.288368 -7.945931
v -9.238059 4.288368 -16.238019
v -0.945970 4.288368 -16.238019
v -9.238059 0.012238 -16.238019
v -0.945970 0.012238 -16.238019
vt 0.327914 0.651903
vt 0.484496 0.651903
vt 0.484496 0.759396
vt 0.327914 0.759396
vt 0.015811 0.758945
vt 0.171463 0.758945
vt 0.171463 0.651903
vt 0.015811 0.651903
vt 0.171383 0.651903
vt 0.328163 0.651903
vt 0.328163 0.759529
vt 0.171383 0.759529
vt 0.640235 0.651903
vt 0.484041 0.651903
vt 0.484041 0.759238
vt 0.640235 0.759238
vn 0.000000 0.000000 1.000000
vn 0.000000 0.000000 1.000000
vn 0.000000 0.000000 1.000000
vn 0.000000 0.000000 1.000000
vn 0.000000 0.000000 -1.000000
vn 0.000000 0.000000 -1.000000
vn 0.000000 0.000000 -1.000000
vn 0.000000 0.000000 -1.000000
vn 1.000000 0.000000 0.000000
vn 1.000000 0.000000 0.000000
vn 1.000000 0.000000 0.000000
vn 1.000000 0.000000 0.000000
vn -1.000000 0.000000 0.000000
vn -1.000000 0.000000 0.000000
vn -1.000000 0.000000 0.000000
vn -1.000000 0.000000 0.000000
s off
g polySurface1 HouseONE
usemtl phong1SG
f 5/5/5 6/6/6 8/7/7 7/8/8
f 9/9/9 10/10/10 12/11/11 11/12/12
f 6/13/13 12/14/14 10/15/15 8/16/16
f 11/17/17 5/18/18 7/19/19 9/20/20
g default
v -10.014427 4.225675 -17.109221
v -10.014427 4.225675 -7.169563
v -10.014427 9.351436 -17.109221
v -10.014427 9.351436 -7.169563
v -0.074769 9.351436 -17.109221
v -0.074769 9.351436 -7.169563
v -0.074769 4.225675 -17.109221
v -0.074769 4.225675 -7.169563
v -5.044598 11.999721 -12.139392
vt 0.015606 0.765387
vt 0.200913 0.765387
vt 0.200913 0.882560
vt 0.013446 0.882560
vt 0.388611 0.882560
vt 0.573613 0.882560
vt 0.573613 0.765262
vt 0.388611 0.765262
vt 0.392801 0.607199
vt 0.590551 0.607199
vt 0.590551 0.409449
vt 0.392801 0.409449
vt 0.201045 0.765175
vt 0.387799 0.765175
vt 0.387799 0.882560
vt 0.201045 0.882560
vt 0.760138 0.765397
vt 0.574127 0.765397
vt 0.574127 0.882560
vt 0.760138 0.882560
vt 0.573380 0.882560
vt 0.387344 0.882560
vt 0.480146 0.997936
vt 0.386455 0.882560
vt 0.202244 0.882560
vt 0.294084 0.996630
vt 0.198816 0.882560
vt 0.013837 0.882560
vt 0.107660 0.997307
vt 0.761163 0.882560
vt 0.574361 0.882560
vt 0.667762 0.997972
vn -1.000000 0.000000 0.000000
vn -1.000000 0.000000 0.000000
vn -1.000000 0.000000 0.000000
vn -1.000000 0.000000 0.000000
vn 1.000000 0.000000 -0.000000
vn 1.000000 0.000000 -0.000000
vn 1.000000 0.000000 -0.000000
vn 1.000000 0.000000 -0.000000
vn 0.000000 -1.000000 0.000000
vn 0.000000 -1.000000 0.000000
vn 0.000000 -1.000000 0.000000
vn 0.000000 -1.000000 0.000000
vn 0.000000 0.000000 1.000000
vn 0.000000 0.000000 1.000000
vn 0.000000 0.000000 1.000000
vn 0.000000 0.000000 1.000000
vn -0.000000 0.000000 -1.000000
vn -0.000000 0.000000 -1.000000
vn -0.000000 0.000000 -1.000000
vn -0.000000 0.000000 -1.000000
vn -0.470272 0.882522 0.000000
vn -0.470272 0.882522 0.000000
vn -0.470272 0.882522 0.000000
vn 0.000000 0.882522 0.470272
vn 0.000000 0.882522 0.470272
vn 0.000000 0.882522 0.470272
vn 0.470272 0.882522 -0.000000
vn 0.470272 0.882522 -0.000000
vn 0.470272 0.882522 -0.000000
vn -0.000000 0.882522 -0.470272
vn -0.000000 0.882522 -0.470272
vn -0.000000 0.882522 -0.470272
s off
g HouseONE polySurface2
usemtl phong1SG
f 13/21/21 14/22/22 16/23/23 15/24/24
f 17/25/25 18/26/26 20/27/27 19/28/28
f 19/29/29 20/30/30 14/31/31 13/32/32
f 14/33/33 20/34/34 18/35/35 16/36/36
f 19/37/37 13/38/38 15/39/39 17/40/40
f 15/41/41 16/42/42 21/43/43
f 16/44/44 18/45/45 21/46/46
f 18/47/47 17/48/48 21/49/49
f 17/50/50 15/51/51 21/52/52
g default
v -5.831004 9.484015 -16.734896
v -5.831004 10.271948 -15.306998
v -5.831004 11.699848 -16.734896
v -5.831004 11.699848 -15.306998
v -4.403105 11.699848 -16.734896
v -4.403105 11.699848 -15.306998
v -4.403105 9.484015 -16.734896
v -4.403105 10.271948 -15.306998
v -5.795308 11.746740 -16.699201
v -5.795308 11.746740 -15.342696
v -4.438803 11.746740 -15.342696
v -4.438803 11.746740 -16.699201
v -5.512701 11.746740 -16.416596
v -5.512701 11.746740 -15.625302
v -4.721407 11.746740 -15.625302
v -4.721407 11.746740 -16.416596
v -5.512701 11.171017 -16.416596
v -5.512701 11.171017 -15.625302
v -4.721407 11.171015 -15.625302
v -4.721407 11.171015 -16.416596
vt 0.841075 0.749311
vt 0.769799 0.785831
vt 0.817181 0.749311
vt 0.791821 0.785831
vt 0.816814 0.834217
vt 0.792816 0.834217
vt 0.792816 0.787240
vt 0.816814 0.764501
vt 0.791821 0.834595
vt 0.769799 0.834595
vt 0.817181 0.834210
vt 0.841075 0.834210
vt 0.819574 0.836440
vt 0.838562 0.836440
vt 0.838088 0.836915
vt 0.820049 0.836915
vt 0.840572 0.766152
vt 0.863513 0.788116
vt 0.863513 0.834248
vt 0.840572 0.834248
vt 0.838562 0.855428
vt 0.838088 0.854954
vt 0.819574 0.855428
vt 0.820049 0.854954
vt 0.824659 0.841680
vt 0.832832 0.841680
vt 0.832832 0.849853
vt 0.824659 0.849853
vt 0.824659 0.841680
vt 0.832832 0.841680
vt 0.832832 0.849853
vt 0.824659 0.849853
vt 0.834330 0.840673
vt 0.823807 0.840673
vt 0.834330 0.851196
vt 0.823807 0.851196
vn -1.000000 0.000000 0.000000
vn -1.000000 0.000000 0.000000
vn -1.000000 0.000000 0.000000
vn -1.000000 0.000000 0.000000
vn 1.000000 0.000000 -0.000000
vn 1.000000 0.000000 -0.000000
vn 1.000000 0.000000 -0.000000
vn 1.000000 0.000000 -0.000000
vn 0.000000 0.000000 1.000000
vn 0.000000 0.000000 1.000000
vn 0.000000 0.000000 1.000000
vn 0.000000 0.000000 1.000000
vn -0.000000 0.000000 -1.000000
vn -0.000000 0.000000 -1.000000
vn -0.000000 0.000000 -1.000000
vn -0.000000 0.000000 -1.000000
vn -0.795688 0.605707 -0.000000
vn -0.795688 0.605707 -0.000000
vn -0.795688 0.605707 -0.000000
vn -0.795688 0.605707 -0.000000
vn 0.000000 0.605728 0.795672
vn 0.000000 0.605728 0.795672
vn 0.000000 0.605728 0.795672
vn 0.000000 0.605728 0.795672
vn 0.795672 0.605727 -0.000000
vn 0.795672 0.605727 -0.000000
vn 0.795672 0.605727 -0.000000
vn 0.795672 0.605727 -0.000000
vn -0.000000 0.605696 -0.795696
vn -0.000000 0.605696 -0.795696
vn -0.000000 0.605696 -0.795696
vn -0.000000 0.605696 -0.795696
vn 0.000000 1.000000 0.000000
vn 0.000000 1.000000 0.000000
vn 0.000000 1.000000 0.000000
vn 0.000000 1.000000 0.000000
vn 0.000000 1.000000 0.000000
vn 0.000000 1.000000 0.000000
vn 0.000000 1.000000 0.000000
vn 0.000000 1.000000 0.000000
vn 1.000000 0.000000 -0.000000
vn 1.000000 0.000000 -0.000000
vn 1.000000 0.000000 -0.000000
vn 1.000000 0.000000 -0.000000
vn -0.000000 0.000000 -1.000000
vn -0.000000 0.000000 -1.000000
vn -0.000000 0.000000 -1.000000
vn -0.000000 0.000000 -1.000000
vn -1.000000 0.000000 0.000000
vn -1.000000 0.000000 0.000000
vn -1.000000 0.000000 0.000000
vn -1.000000 0.000000 0.000000
vn 0.000000 0.000000 1.000000
vn 0.000000 0.000000 1.000000
vn 0.000000 0.000000 1.000000
vn 0.000000 0.000000 1.000000
s off
g HouseONE Houses
usemtl phong1SG
f 22/69/53 23/70/54 25/71/55 24/72/56
f 26/57/57 27/58/58 29/59/59 28/60/60
f 23/54/61 29/56/62 27/61/63 25/62/64
f 28/53/65 22/55/66 24/63/67 26/64/68
f 24/65/69 25/66/70 31/67/71 30/68/72
f 25/66/73 27/73/74 32/74/75 31/67/76
f 27/73/77 26/75/78 33/76/79 32/74/80
f 26/75/81 24/65/82 30/68/83 33/76/84
s 1
f 30/68/85 31/67/86 35/85/87 34/86/88
f 31/67/86 32/74/89 36/87/90 35/85/87
f 32/74/89 33/76/91 37/88/92 36/87/90
f 33/76/91 30/68/85 34/86/88 37/88/92
s off
f 34/77/93 35/78/94 39/82/95 38/81/96
f 35/78/97 36/79/98 40/83/99 39/82/100
f 36/79/101 37/80/102 41/84/103 40/83/104
f 37/80/105 34/77/106 38/81/107 41/84/108
g default
v 10.332869 -0.011567 -17.152233
v 10.332869 -0.011567 -7.212576
v 10.332869 5.114194 -17.152233
v 10.332869 5.114194 -7.212576
v 16.982637 5.114194 -17.152234
v 16.982637 5.114194 -7.212577
v 16.982637 -0.011567 -17.152234
v 16.982637 -0.011567 -7.212577
v 13.657752 7.762479 -17.169763
v 13.657752 7.762479 -7.283768
vt 0.381864 0.270770
vt 0.548218 0.270770
vt 0.548218 0.393390
vt 0.379703 0.393390
vt 0.000265 0.394567
vt 0.240663 0.394567
vt 0.240663 0.270770
vt 0.000265 0.270770
vt 0.241578 0.270770
vt 0.376298 0.270770
vt 0.376298 0.394567
vt 0.241578 0.394567
vt 0.749848 0.270831
vt 0.619535 0.270831
vt 0.619535 0.387994
vt 0.749848 0.387994
vt 0.751538 0.387742
vt 0.242390 0.394283
vt 0.686381 0.453133
vt 0.375596 0.394283
vt 0.621225 0.387742
vt 0.309148 0.452890
vn -1.000000 0.000000 0.000000
vn -1.000000 0.000000 0.000000
vn -1.000000 0.000000 0.000000
vn -1.000000 0.000000 0.000000
vn 1.000000 0.000000 -0.000000
vn 1.000000 0.000000 -0.000000
vn 1.000000 0.000000 -0.000000
vn 1.000000 0.000000 -0.000000
vn 0.000000 0.000000 1.000000
vn 0.000000 0.000000 1.000000
vn 0.000000 0.000000 1.000000
vn 0.000000 0.000000 1.000000
vn -0.000000 0.000000 -1.000000
vn -0.000000 0.000000 -1.000000
vn -0.000000 0.000000 -1.000000
vn -0.000000 0.000000 -1.000000
vn 0.000000 0.026872 0.999639
vn 0.000000 0.026872 0.999639
vn 0.000000 0.026872 0.999639
vn -0.000000 -0.006619 -0.999978
vn -0.000000 -0.006619 -0.999978
vn -0.000000 -0.006619 -0.999978
s off
g polySurface10 House3
usemtl phong1SG
f 42/89/109 43/90/110 45/91/111 44/92/112
f 46/93/113 47/94/114 49/95/115 48/96/116
f 43/97/117 49/98/118 47/99/119 45/100/120
f 48/101/121 42/102/122 44/103/123 46/104/124
f 45/106/125 47/108/126 51/110/127
f 46/109/128 44/105/129 50/107/130
g default
v 13.647862 7.797340 -6.652086
v 17.413650 4.790825 -6.652086
v 17.413650 4.790824 -17.716353
v 13.647862 7.797340 -17.716352
v 9.981309 4.824074 -6.652086
v 9.981309 4.824075 -17.716350
vt 0.612586 0.404195
vt 0.612586 0.508062
vt 0.366364 0.508062
vt 0.366364 0.404195
vt 0.612586 0.507657
vt 0.612586 0.614110
vt 0.366364 0.614110
vt 0.366364 0.507657
vn 0.623921 0.781487 -0.000000
vn 0.623921 0.781487 -0.000000
vn 0.623921 0.781487 -0.000000
vn 0.623921 0.781487 -0.000000
vn -0.629851 0.776716 -0.000000
vn -0.629851 0.776716 -0.000000
vn -0.629851 0.776716 -0.000000
vn -0.629851 0.776716 -0.000000
s off
g House3 polySurface11
usemtl phong1SG
f 52/111/131 53/112/132 54/113/133 55/114/134
f 56/115/135 52/116/136 55/117/137 57/118/138
g default
v 13.070059 -0.091159 -17.092576
v 14.985461 -0.091159 -17.092576
v 13.070059 6.698981 -17.167763
v 14.985461 6.698980 -17.167763
v 13.070059 6.698981 -18.307457
v 14.985461 6.698980 -18.307457
v 13.070059 -0.091159 -18.307457
v 14.985461 -0.091159 -18.307457
v 13.463452 7.988188 -17.401838
v 14.592068 7.988188 -17.401838
v 14.592068 7.988188 -18.073382
v 13.463452 7.988188 -18.073382
vt 0.970859 0.094316
vt 0.898850 0.094316
vt 0.916593 0.406451
vt 0.948586 0.406451
vt 0.942016 0.330284
vt 0.923164 0.330284
vt 0.970859 0.309702
vt 0.898850 0.309702
vt 0.898156 0.091973
vt 0.970359 0.091973
vt 0.970359 0.309359
vt 0.898156 0.309359
vt 0.970359 0.091973
vt 0.898156 0.091973
vt 0.898156 0.309359
vt 0.970359 0.309359
vt 0.898850 0.309702
vt 0.970859 0.309702
vt 0.898850 0.094316
vt 0.970859 0.094316
vt 0.915580 0.309966
vt 0.952554 0.309966
vt 0.952554 0.329852
vt 0.915580 0.329852
vt 0.971941 0.302704
vt 0.899012 0.302704
vt 0.911441 0.198879
vt 0.959512 0.198879
vt 0.904630 0.238104
vt 0.963733 0.238103
vt 0.957151 0.124521
vt 0.911213 0.124521
vt 0.948586 0.406451
vt 0.916593 0.406451
vt 0.923164 0.330284
vt 0.942016 0.330284
vn 0.000000 0.011072 0.999939
vn 0.000000 0.011072 0.999939
vn 0.000000 0.011072 0.999939
vn 0.000000 0.011072 0.999939
vn 0.000000 1.000000 0.000000
vn 0.000000 1.000000 0.000000
vn 0.000000 1.000000 0.000000
vn 0.000000 1.000000 0.000000
vn 0.000000 0.000000 -1.000000
vn 0.000000 0.000000 -1.000000
vn 0.000000 0.000000 -1.000000
vn 0.000000 0.000000 -1.000000
vn 1.000000 0.000000 0.000000
vn 1.000000 0.000000 0.000000
vn 1.000000 0.000000 0.000000
vn 1.000000 0.000000 0.000000
vn -1.000000 0.000000 0.000000
vn -1.000000 0.000000 0.000000
vn -1.000000 0.000000 0.000000
vn -1.000000 0.000000 0.000000
vn 0.000000 0.178644 0.983914
vn 0.000000 0.178644 0.983914
vn 0.000000 0.178644 0.983914
vn 0.000000 0.178644 0.983914
vn 0.956462 0.291858 0.000000
vn 0.956462 0.291858 0.000000
vn 0.956462 0.291858 0.000000
vn 0.956462 0.291858 0.000000
vn 0.000000 0.178644 -0.983914
vn 0.000000 0.178644 -0.983914
vn 0.000000 0.178644 -0.983914
vn 0.000000 0.178644 -0.983914
vn -0.956462 0.291858 0.000000
vn -0.956462 0.291858 0.000000
vn -0.956462 0.291858 0.000000
vn -0.956462 0.291858 0.000000
s off
g House3 pCube2
usemtl phong1SG
f 58/119/139 59/120/140 61/125/141 60/126/142
f 66/139/143 67/140/144 68/141/145 69/142/146
f 62/135/147 63/136/148 65/137/149 64/138/150
f 59/127/151 65/128/152 63/129/153 61/130/154
f 64/131/155 58/132/156 60/133/157 62/134/158
f 60/143/159 61/144/160 67/145/161 66/146/162
f 61/121/163 63/122/164 68/123/165 67/124/166
f 63/147/167 62/148/168 69/149/169 68/150/170
f 62/151/171 60/152/172 66/153/173 69/154/174
g default
v 16.473839 0.003344 -7.221181
v 18.209496 0.003344 -7.221181
v 16.473839 3.911606 -7.221181
v 18.209496 3.268037 -7.221181
v 16.473839 3.911606 -9.606915
v 18.209496 3.268037 -9.606915
v 16.473839 0.003344 -9.606915
v 18.209496 0.003344 -9.606915
vt 0.375000 0.000000
vt 0.629557 0.155697
vt 0.375000 0.250000
vt 0.760146 0.269525
vt 0.824012 0.269525
vt 0.824012 0.317598
vt 0.375000 0.750000
vt 0.625000 0.750000
vt 0.375000 1.000000
vt 0.625000 1.000000
vt 0.669228 0.154687
vt 0.721281 0.154687
vt 0.125000 0.000000
vt 0.125000 0.250000
vt 0.721281 0.240928
vt 0.669228 0.240928
vt 0.668180 0.155697
vt 0.668180 0.239522
vt 0.629557 0.266113
vt 0.629557 0.266113
vt 0.668180 0.239522
vt 0.668180 0.155697
vt 0.629557 0.155697
vt 0.760146 0.317598
vn 0.000000 0.000000 1.000000
vn 0.000000 0.000000 1.000000
vn 0.000000 0.000000 1.000000
vn 0.000000 0.000000 1.000000
vn 0.347662 0.937620 0.000000
vn 0.347662 0.937620 0.000000
vn 0.347662 0.937620 0.000000
vn 0.347662 0.937620 0.000000
vn 0.000000 0.000000 -1.000000
vn 0.000000 0.000000 -1.000000
vn 0.000000 0.000000 -1.000000
vn 0.000000 0.000000 -1.000000
vn 0.000000 -1.000000 0.000000
vn 0.000000 -1.000000 0.000000
vn 0.000000 -1.000000 0.000000
vn 0.000000 -1.000000 0.000000
vn 1.000000 0.000000 0.000000
vn 1.000000 0.000000 0.000000
vn 1.000000 0.000000 0.000000
vn 1.000000 0.000000 0.000000
vn -1.000000 0.000000 0.000000
vn -1.000000 0.000000 0.000000
vn -1.000000 0.000000 0.000000
vn -1.000000 0.000000 0.000000
s off
g House3 pCube3
usemtl phong1SG
f 70/156/175 71/171/176 73/172/177 72/173/178
f 72/158/179 73/159/180 75/160/181 74/178/182
f 74/174/183 75/175/184 77/176/185 76/177/186
f 76/161/187 77/162/188 71/164/189 70/163/190
f 71/165/191 77/166/192 75/169/193 73/170/194
f 76/167/195 70/155/196 72/157/197 74/168/198
g default
v 1.305296 1.895403 -7.916829
v 1.295210 0.009208 -7.916829
v 7.448036 -0.000878 -7.916829
v 7.448036 1.885316 -7.916829
v 4.381710 5.032336 -7.916829
v 1.300253 1.890360 -14.528873
v 1.295210 0.004165 -14.528873
v 7.448036 0.004165 -14.528873
v 7.442993 1.890360 -14.528873
v 4.361537 5.032336 -14.536557
vt 0.450742 0.067164
vt 0.646977 0.066842
vt 0.548991 0.162854
vt 0.451550 0.008764
vt 0.646977 0.009157
vt 0.211983 0.264226
vt 0.169623 0.264226
vt 0.169623 0.002922
vt 0.211983 0.002922
vt 0.265202 0.263971
vt 0.221116 0.263971
vt 0.221116 0.003841
vt 0.265202 0.003841
vt 0.676083 0.065285
vt 0.872318 0.064963
vt 0.773580 0.159472
vt 0.676891 0.006886
vt 0.872318 0.007278
vn 0.000000 0.000000 1.000000
vn 0.000000 0.000000 1.000000
vn 0.000000 0.000000 1.000000
vn 0.000000 0.000000 1.000000
vn 0.000000 0.000000 1.000000
vn 0.000000 0.000000 1.000000
vn 0.000000 0.000000 1.000000
vn -0.999992 0.004011 0.000378
vn -0.999992 0.004011 0.000378
vn -0.999992 0.004011 0.000378
vn -0.999992 0.004011 0.000378
vn 0.999999 0.001337 -0.000380
vn 0.999999 0.001337 -0.000380
vn 0.999999 0.001337 -0.000380
vn 0.999999 0.001337 -0.000380
vn 0.000000 -0.002446 -0.999997
vn 0.000000 -0.002446 -0.999997
vn 0.000000 -0.002446 -0.999997
vn 0.000000 0.000000 -1.000000
vn 0.000000 0.000000 -1.000000
vn 0.000000 0.000000 -1.000000
vn 0.000000 0.000000 -1.000000
s off
g polySurface6 House2
usemtl phong1SG
f 78/179/199 81/180/200 82/181/201
f 78/179/202 79/182/203 80/183/204 81/180/205
f 79/184/206 78/185/207 83/186/208 84/187/209
f 81/188/210 80/189/211 85/190/212 86/191/213
f 86/192/214 83/193/215 87/194/216
f 86/192/217 85/195/218 84/196/219 83/193/220
g default
v 4.381710 5.032335 -7.555089
v 7.683154 1.658817 -7.555089
v 7.683154 1.658817 -14.894592
v 4.381710 5.032335 -14.894591
v 1.070179 1.668904 -7.555089
v 1.070179 1.668905 -14.894590
vt 0.429628 0.264513
vt 0.275586 0.264513
vt 0.275586 0.004606
vt 0.429628 0.004606
vt 0.275586 0.264513
vt 0.429628 0.264513
vt 0.429628 0.004606
vt 0.275586 0.004606
vn 0.714700 0.699431 -0.000000
vn 0.714700 0.699431 -0.000000
vn 0.714700 0.699431 -0.000000
vn 0.714700 0.699431 -0.000000
vn -0.712583 0.701588 0.000000
vn -0.712583 0.701588 0.000000
vn -0.712583 0.701588 0.000000
vn -0.712583 0.701588 0.000000
s off
g House2 polySurface9
usemtl phong1SG
f 88/197/221 89/198/222 90/199/223 91/200/224
f 92/201/225 88/202/226 91/203/227 93/204/228
g default
v 3.906197 4.475813 -10.613876
v 4.906197 4.475813 -10.613876
v 3.906197 5.736488 -10.613876
v 4.906197 5.736488 -10.613876
v 3.906197 5.736488 -11.613876
v 4.906197 5.736488 -11.613876
v 3.906197 4.475813 -11.613876
v 4.906197 4.475813 -11.613876
vt 0.770365 0.766753
vt 0.815887 0.766753
vt 0.815887 0.833973
vt 0.770365 0.833973
vt 0.817767 0.767210
vt 0.862965 0.767210
vt 0.862965 0.833540
vt 0.817767 0.833540
vt 0.815887 0.766753
vt 0.770365 0.766753
vt 0.770365 0.833973
vt 0.815887 0.833973
vt 0.819936 0.836348
vt 0.838602 0.836348
vt 0.838602 0.855015
vt 0.819936 0.855015
vt 0.817767 0.833540
vt 0.862965 0.833540
vt 0.862965 0.767210
vt 0.817767 0.767210
vn 0.000000 0.000000 1.000000
vn 0.000000 0.000000 1.000000
vn 0.000000 0.000000 1.000000
vn 0.000000 0.000000 1.000000
vn 0.000000 1.000000 0.000000
vn 0.000000 1.000000 0.000000
vn 0.000000 1.000000 0.000000
vn 0.000000 1.000000 0.000000
vn 0.000000 0.000000 -1.000000
vn 0.000000 0.000000 -1.000000
vn 0.000000 0.000000 -1.000000
vn 0.000000 0.000000 -1.000000
vn 1.000000 0.000000 0.000000
vn 1.000000 0.000000 0.000000
vn 1.000000 0.000000 0.000000
vn 1.000000 0.000000 0.000000
vn -1.000000 0.000000 0.000000
vn -1.000000 0.000000 0.000000
vn -1.000000 0.000000 0.000000
vn -1.000000 0.000000 0.000000
s off
g House2 pCube1
usemtl phong1SG
f 94/209/229 95/210/230 97/211/231 96/212/232
f 96/217/233 97/218/234 99/219/235 98/220/236
f 98/221/237 99/222/238 101/223/239 100/224/240
f 95/205/241 101/206/242 99/207/243 97/208/244
f 100/213/245 94/214/246 96/215/247 98/216/248
g default
v 6.071427 0.003372 -7.738237
v 5.821254 0.003372 -7.841862
v 5.571080 0.003372 -7.738237
v 5.467455 0.003372 -7.488063
v 5.571080 0.003372 -7.237890
v 5.821254 0.003372 -7.134265
v 6.071427 0.003372 -7.237890
v 6.175052 0.003372 -7.488063
v 6.071427 0.989737 -7.738237
v 5.821254 0.989737 -7.841862
v 5.571080 0.989737 -7.738237
v 5.467455 0.989737 -7.488063
v 5.571080 0.989737 -7.237890
v 5.821254 0.989737 -7.134265
v 6.071427 0.989737 -7.237890
v 6.175052 0.989737 -7.488063
v 5.821254 0.989737 -7.488063
vt 0.770595 0.187343
vt 0.770595 0.224380
vt 0.865694 0.224380
vt 0.784181 0.187343
vt 0.784181 0.224380
vt 0.797766 0.187343
vt 0.797766 0.224380
vt 0.811352 0.187343
vt 0.811352 0.224380
vt 0.824937 0.187343
vt 0.824937 0.224380
vt 0.838523 0.187343
vt 0.838523 0.224380
vt 0.852108 0.187343
vt 0.852108 0.224380
vt 0.811735 0.248112
vt 0.802669 0.251867
vt 0.802669 0.239046
vt 0.793604 0.248112
vt 0.789849 0.239046
vt 0.793604 0.229981
vt 0.802669 0.226226
vt 0.811735 0.229981
vt 0.815490 0.239046
vt 0.865694 0.187343
vt 0.879279 0.187343
vt 0.879279 0.224380
vn 0.382684 0.000000 -0.923879
vn 0.382684 0.000000 -0.923879
vn 0.382684 0.000000 -0.923879
vn 0.382684 0.000000 -0.923879
vn -0.382683 0.000000 -0.923880
vn -0.382683 0.000000 -0.923880
vn -0.382683 0.000000 -0.923880
vn -0.382683 0.000000 -0.923880
vn -0.923879 0.000000 -0.382684
vn -0.923879 0.000000 -0.382684
vn -0.923879 0.000000 -0.382684
vn -0.923879 0.000000 -0.382684
vn -0.923879 0.000000 0.382684
vn -0.923879 0.000000 0.382684
vn -0.923879 0.000000 0.382684
vn -0.923879 0.000000 0.382684
vn -0.382683 0.000000 0.923880
vn -0.382683 0.000000 0.923880
vn -0.382683 0.000000 0.923880
vn -0.382683 0.000000 0.923880
vn 0.382684 0.000000 0.923879
vn 0.382684 0.000000 0.923879
vn 0.382684 0.000000 0.923879
vn 0.382684 0.000000 0.923879
vn 0.923879 0.000000 0.382684
vn 0.923879 0.000000 0.382684
vn 0.923879 0.000000 0.382684
vn 0.923879 0.000000 0.382684
vn 0.923879 0.000000 -0.382684
vn 0.923879 0.000000 -0.382684
vn 0.923879 0.000000 -0.382684
vn 0.923879 0.000000 -0.382684
vn 0.000000 1.000000 0.000000
vn 0.000000 1.000000 0.000000
vn 0.000000 1.000000 0.000000
vn 0.000000 1.000000 0.000000
vn 0.000000 1.000000 0.000000
vn 0.000000 1.000000 0.000000
vn 0.000000 1.000000 0.000000
vn 0.000000 1.000000 0.000000
vn 0.000000 1.000000 0.000000
s off
g House2 pCylinder1
usemtl phong1SG
f 102/249/249 103/250/250 111/251/251 110/227/252
f 103/225/253 104/228/254 112/229/255 111/226/256
f 104/228/257 105/230/258 113/231/259 112/229/260
f 105/230/261 106/232/262 114/233/263 113/231/264
f 106/232/265 107/234/266 115/235/267 114/233/268
f 107/234/269 108/236/270 116/237/271 115/235/272
f 108/236/273 109/238/274 117/239/275 116/237/276
f 109/238/277 102/249/278 110/227/279 117/239/280
s 1
f 110/240/281 111/241/282 118/242/283
f 111/241/282 112/243/284 118/242/283
f 112/243/284 113/244/285 118/242/283
f 113/244/285 114/245/286 118/242/283
f 114/245/286 115/246/287 118/242/283
f 115/246/287 116/247/288 118/242/283
f 116/247/288 117/248/289 118/242/283
f 117/248/289 110/240/281 118/242/283
